<?xml version="1.0" encoding="UTF-8" standalone="no"?>
<svg xmlns="http://www.w3.org/2000/svg" xmlns:xlink="http://www.w3.org/1999/xlink" contentScriptType="application/ecmascript" contentStyleType="text/css" height="584px" preserveAspectRatio="none" style="width:576px;height:584px;" version="1.1" viewBox="0 0 576 584" width="576px" zoomAndPan="magnify"><defs><filter height="300%" id="fo8dpjb6owtc7" width="300%" x="-1" y="-1"><feGaussianBlur result="blurOut" stdDeviation="2.0"/><feColorMatrix in="blurOut" result="blurOut2" type="matrix" values="0 0 0 0 0 0 0 0 0 0 0 0 0 0 0 0 0 0 .4 0"/><feOffset dx="4.0" dy="4.0" in="blurOut2" result="blurOut3"/><feBlend in="SourceGraphic" in2="blurOut3" mode="normal"/></filter></defs><g><!--MD5=[95722532169285f25348acfb4df84135]
class ISimEnv--><rect codeLine="1" fill="#FEFECE" filter="url(#fo8dpjb6owtc7)" height="124.8281" id="ISimEnv" style="stroke:#A80036;stroke-width:1.5;" width="83" x="238" y="7"/><ellipse cx="253.45" cy="23" fill="#B4A7E5" rx="11" ry="11" style="stroke:#A80036;stroke-width:1.0;"/><path d="M254.4031,19.7813 L256.1219,19.7813 C256.5125,19.7813 256.7,19.75 256.825,19.6719 C257.0906,19.5156 257.2313,19.2344 257.2313,18.9375 C257.2313,18.6719 257.1219,18.4063 256.8875,18.2344 C256.7156,18.125 256.575,18.0938 256.1219,18.0938 L250.9813,18.0938 C250.5438,18.0938 250.4188,18.1094 250.2625,18.2031 C250.0125,18.3594 249.8563,18.6563 249.8563,18.9375 C249.8563,19.2188 249.9969,19.4688 250.2156,19.6406 C250.3719,19.75 250.5594,19.7813 250.9813,19.7813 L252.7,19.7813 L252.7,26.2969 L250.9813,26.2969 C250.5438,26.2969 250.4188,26.3125 250.2625,26.4219 C250.0125,26.5781 249.8563,26.8594 249.8563,27.1563 C249.8563,27.4063 249.9969,27.6719 250.2156,27.8281 C250.3719,27.9531 250.575,28 250.9813,28 L256.1219,28 C256.8719,28 257.2313,27.7188 257.2313,27.1563 C257.2313,26.875 257.1219,26.625 256.8875,26.4531 C256.7156,26.3281 256.575,26.2969 256.1219,26.2969 L254.4031,26.2969 L254.4031,19.7813 Z " fill="#000000"/><text fill="#000000" font-family="sans-serif" font-size="12" font-style="italic" lengthAdjust="spacingAndGlyphs" textLength="50" x="267.55" y="27.1543">ISimEnv</text><line style="stroke:#A80036;stroke-width:1.5;" x1="239" x2="320" y1="39" y2="39"/><text fill="#000000" font-family="sans-serif" font-size="11" lengthAdjust="spacingAndGlyphs" textLength="56" x="244" y="53.2104">StartTime</text><text fill="#000000" font-family="sans-serif" font-size="11" lengthAdjust="spacingAndGlyphs" textLength="55" x="244" y="66.0151">StopTime</text><text fill="#000000" font-family="sans-serif" font-size="11" lengthAdjust="spacingAndGlyphs" textLength="71" x="244" y="78.8198">CurrentTime</text><line style="stroke:#A80036;stroke-width:1.5;" x1="239" x2="320" y1="85.4141" y2="85.4141"/><text fill="#000000" font-family="sans-serif" font-size="11" lengthAdjust="spacingAndGlyphs" textLength="30" x="244" y="99.6245">Add()</text><text fill="#000000" font-family="sans-serif" font-size="11" lengthAdjust="spacingAndGlyphs" textLength="35" x="244" y="112.4292">Step()</text><text fill="#000000" font-family="sans-serif" font-size="11" lengthAdjust="spacingAndGlyphs" textLength="29" x="244" y="125.2339">Run()</text><!--MD5=[b0890e778602f9c1dee711679866e7af]
class ISimObj--><rect codeLine="10" fill="#FEFECE" filter="url(#fo8dpjb6owtc7)" height="99.2188" id="ISimObj" style="stroke:#A80036;stroke-width:1.5;" width="93" x="104" y="192"/><ellipse cx="125.3" cy="208" fill="#B4A7E5" rx="11" ry="11" style="stroke:#A80036;stroke-width:1.0;"/><path d="M126.2531,204.7813 L127.9719,204.7813 C128.3625,204.7813 128.55,204.75 128.675,204.6719 C128.9406,204.5156 129.0813,204.2344 129.0813,203.9375 C129.0813,203.6719 128.9719,203.4063 128.7375,203.2344 C128.5656,203.125 128.425,203.0938 127.9719,203.0938 L122.8313,203.0938 C122.3938,203.0938 122.2688,203.1094 122.1125,203.2031 C121.8625,203.3594 121.7063,203.6563 121.7063,203.9375 C121.7063,204.2188 121.8469,204.4688 122.0656,204.6406 C122.2219,204.75 122.4094,204.7813 122.8313,204.7813 L124.55,204.7813 L124.55,211.2969 L122.8313,211.2969 C122.3938,211.2969 122.2688,211.3125 122.1125,211.4219 C121.8625,211.5781 121.7063,211.8594 121.7063,212.1563 C121.7063,212.4063 121.8469,212.6719 122.0656,212.8281 C122.2219,212.9531 122.425,213 122.8313,213 L127.9719,213 C128.7219,213 129.0813,212.7188 129.0813,212.1563 C129.0813,211.875 128.9719,211.625 128.7375,211.4531 C128.5656,211.3281 128.425,211.2969 127.9719,211.2969 L126.2531,211.2969 L126.2531,204.7813 Z " fill="#000000"/><text fill="#000000" font-family="sans-serif" font-size="12" font-style="italic" lengthAdjust="spacingAndGlyphs" textLength="47" x="140.7" y="212.1543">ISimObj</text><line style="stroke:#A80036;stroke-width:1.5;" x1="105" x2="196" y1="224" y2="224"/><text fill="#000000" font-family="sans-serif" font-size="11" lengthAdjust="spacingAndGlyphs" textLength="34" x="110" y="238.2104">Name</text><line style="stroke:#A80036;stroke-width:1.5;" x1="105" x2="196" y1="244.8047" y2="244.8047"/><text fill="#000000" font-family="sans-serif" font-size="11" lengthAdjust="spacingAndGlyphs" textLength="56" x="110" y="259.0151">StartRun()</text><text fill="#000000" font-family="sans-serif" font-size="11" lengthAdjust="spacingAndGlyphs" textLength="50" x="110" y="271.8198">EndRun()</text><text fill="#000000" font-family="sans-serif" font-size="11" lengthAdjust="spacingAndGlyphs" textLength="81" x="110" y="284.6245">HandleEvent()</text><!--MD5=[c8eda333b59b3086a812908e807479e1]
class IIntegrator--><rect codeLine="17" fill="#FEFECE" filter="url(#fo8dpjb6owtc7)" height="48" id="IIntegrator" style="stroke:#A80036;stroke-width:1.5;" width="97" x="362" y="217.5"/><ellipse cx="377" cy="233.5" fill="#B4A7E5" rx="11" ry="11" style="stroke:#A80036;stroke-width:1.0;"/><path d="M377.9531,230.2813 L379.6719,230.2813 C380.0625,230.2813 380.25,230.25 380.375,230.1719 C380.6406,230.0156 380.7813,229.7344 380.7813,229.4375 C380.7813,229.1719 380.6719,228.9063 380.4375,228.7344 C380.2656,228.625 380.125,228.5938 379.6719,228.5938 L374.5313,228.5938 C374.0938,228.5938 373.9688,228.6094 373.8125,228.7031 C373.5625,228.8594 373.4063,229.1563 373.4063,229.4375 C373.4063,229.7188 373.5469,229.9688 373.7656,230.1406 C373.9219,230.25 374.1094,230.2813 374.5313,230.2813 L376.25,230.2813 L376.25,236.7969 L374.5313,236.7969 C374.0938,236.7969 373.9688,236.8125 373.8125,236.9219 C373.5625,237.0781 373.4063,237.3594 373.4063,237.6563 C373.4063,237.9063 373.5469,238.1719 373.7656,238.3281 C373.9219,238.4531 374.125,238.5 374.5313,238.5 L379.6719,238.5 C380.4219,238.5 380.7813,238.2188 380.7813,237.6563 C380.7813,237.375 380.6719,237.125 380.4375,236.9531 C380.2656,236.8281 380.125,236.7969 379.6719,236.7969 L377.9531,236.7969 L377.9531,230.2813 Z " fill="#000000"/><text fill="#000000" font-family="sans-serif" font-size="12" font-style="italic" lengthAdjust="spacingAndGlyphs" textLength="65" x="391" y="237.6543">IIntegrator</text><line style="stroke:#A80036;stroke-width:1.5;" x1="363" x2="458" y1="249.5" y2="249.5"/><line style="stroke:#A80036;stroke-width:1.5;" x1="363" x2="458" y1="257.5" y2="257.5"/><!--MD5=[e9d5aa8a49016db0ff816e6346ad410f]
class ISimEvent--><rect codeLine="19" fill="#FEFECE" filter="url(#fo8dpjb6owtc7)" height="48" id="ISimEvent" style="stroke:#A80036;stroke-width:1.5;" width="94" x="232.5" y="217.5"/><ellipse cx="247.5" cy="233.5" fill="#B4A7E5" rx="11" ry="11" style="stroke:#A80036;stroke-width:1.0;"/><path d="M248.4531,230.2813 L250.1719,230.2813 C250.5625,230.2813 250.75,230.25 250.875,230.1719 C251.1406,230.0156 251.2813,229.7344 251.2813,229.4375 C251.2813,229.1719 251.1719,228.9063 250.9375,228.7344 C250.7656,228.625 250.625,228.5938 250.1719,228.5938 L245.0313,228.5938 C244.5938,228.5938 244.4688,228.6094 244.3125,228.7031 C244.0625,228.8594 243.9063,229.1563 243.9063,229.4375 C243.9063,229.7188 244.0469,229.9688 244.2656,230.1406 C244.4219,230.25 244.6094,230.2813 245.0313,230.2813 L246.75,230.2813 L246.75,236.7969 L245.0313,236.7969 C244.5938,236.7969 244.4688,236.8125 244.3125,236.9219 C244.0625,237.0781 243.9063,237.3594 243.9063,237.6563 C243.9063,237.9063 244.0469,238.1719 244.2656,238.3281 C244.4219,238.4531 244.625,238.5 245.0313,238.5 L250.1719,238.5 C250.9219,238.5 251.2813,238.2188 251.2813,237.6563 C251.2813,237.375 251.1719,237.125 250.9375,236.9531 C250.7656,236.8281 250.625,236.7969 250.1719,236.7969 L248.4531,236.7969 L248.4531,230.2813 Z " fill="#000000"/><text fill="#000000" font-family="sans-serif" font-size="12" font-style="italic" lengthAdjust="spacingAndGlyphs" textLength="62" x="261.5" y="237.6543">ISimEvent</text><line style="stroke:#A80036;stroke-width:1.5;" x1="233.5" x2="325.5" y1="249.5" y2="249.5"/><line style="stroke:#A80036;stroke-width:1.5;" x1="233.5" x2="325.5" y1="257.5" y2="257.5"/><!--MD5=[3401e2bca85cc98bb3dfb497baadf8ea]
class IInput--><rect codeLine="23" fill="#FEFECE" filter="url(#fo8dpjb6owtc7)" height="86.4141" id="IInput" style="stroke:#A80036;stroke-width:1.5;" width="69" x="7" y="351"/><ellipse cx="22" cy="367" fill="#B4A7E5" rx="11" ry="11" style="stroke:#A80036;stroke-width:1.0;"/><path d="M22.9531,363.7813 L24.6719,363.7813 C25.0625,363.7813 25.25,363.75 25.375,363.6719 C25.6406,363.5156 25.7813,363.2344 25.7813,362.9375 C25.7813,362.6719 25.6719,362.4063 25.4375,362.2344 C25.2656,362.125 25.125,362.0938 24.6719,362.0938 L19.5313,362.0938 C19.0938,362.0938 18.9688,362.1094 18.8125,362.2031 C18.5625,362.3594 18.4063,362.6563 18.4063,362.9375 C18.4063,363.2188 18.5469,363.4688 18.7656,363.6406 C18.9219,363.75 19.1094,363.7813 19.5313,363.7813 L21.25,363.7813 L21.25,370.2969 L19.5313,370.2969 C19.0938,370.2969 18.9688,370.3125 18.8125,370.4219 C18.5625,370.5781 18.4063,370.8594 18.4063,371.1563 C18.4063,371.4063 18.5469,371.6719 18.7656,371.8281 C18.9219,371.9531 19.125,372 19.5313,372 L24.6719,372 C25.4219,372 25.7813,371.7188 25.7813,371.1563 C25.7813,370.875 25.6719,370.625 25.4375,370.4531 C25.2656,370.3281 25.125,370.2969 24.6719,370.2969 L22.9531,370.2969 L22.9531,363.7813 Z " fill="#000000"/><text fill="#000000" font-family="sans-serif" font-size="12" font-style="italic" lengthAdjust="spacingAndGlyphs" textLength="37" x="36" y="371.1543">IInput</text><line style="stroke:#A80036;stroke-width:1.5;" x1="8" x2="75" y1="383" y2="383"/><text fill="#000000" font-family="sans-serif" font-size="11" lengthAdjust="spacingAndGlyphs" textLength="34" x="13" y="397.2104">Name</text><text fill="#000000" font-family="sans-serif" font-size="11" lengthAdjust="spacingAndGlyphs" textLength="28" x="13" y="410.0151">Units</text><text fill="#000000" font-family="sans-serif" font-size="11" lengthAdjust="spacingAndGlyphs" textLength="52" x="13" y="422.8198">InputKind</text><line style="stroke:#A80036;stroke-width:1.5;" x1="8" x2="75" y1="429.4141" y2="429.4141"/><!--MD5=[cbfa7026d6ffbe682885bfadc514547d]
class IOutput--><rect codeLine="29" fill="#FEFECE" filter="url(#fo8dpjb6owtc7)" height="86.4141" id="IOutput" style="stroke:#A80036;stroke-width:1.5;" width="79" x="111" y="351"/><ellipse cx="126" cy="367" fill="#B4A7E5" rx="11" ry="11" style="stroke:#A80036;stroke-width:1.0;"/><path d="M126.9531,363.7813 L128.6719,363.7813 C129.0625,363.7813 129.25,363.75 129.375,363.6719 C129.6406,363.5156 129.7813,363.2344 129.7813,362.9375 C129.7813,362.6719 129.6719,362.4063 129.4375,362.2344 C129.2656,362.125 129.125,362.0938 128.6719,362.0938 L123.5313,362.0938 C123.0938,362.0938 122.9688,362.1094 122.8125,362.2031 C122.5625,362.3594 122.4063,362.6563 122.4063,362.9375 C122.4063,363.2188 122.5469,363.4688 122.7656,363.6406 C122.9219,363.75 123.1094,363.7813 123.5313,363.7813 L125.25,363.7813 L125.25,370.2969 L123.5313,370.2969 C123.0938,370.2969 122.9688,370.3125 122.8125,370.4219 C122.5625,370.5781 122.4063,370.8594 122.4063,371.1563 C122.4063,371.4063 122.5469,371.6719 122.7656,371.8281 C122.9219,371.9531 123.125,372 123.5313,372 L128.6719,372 C129.4219,372 129.7813,371.7188 129.7813,371.1563 C129.7813,370.875 129.6719,370.625 129.4375,370.4531 C129.2656,370.3281 129.125,370.2969 128.6719,370.2969 L126.9531,370.2969 L126.9531,363.7813 Z " fill="#000000"/><text fill="#000000" font-family="sans-serif" font-size="12" font-style="italic" lengthAdjust="spacingAndGlyphs" textLength="47" x="140" y="371.1543">IOutput</text><line style="stroke:#A80036;stroke-width:1.5;" x1="112" x2="189" y1="383" y2="383"/><text fill="#000000" font-family="sans-serif" font-size="11" lengthAdjust="spacingAndGlyphs" textLength="34" x="117" y="397.2104">Name</text><text fill="#000000" font-family="sans-serif" font-size="11" lengthAdjust="spacingAndGlyphs" textLength="28" x="117" y="410.0151">Units</text><text fill="#000000" font-family="sans-serif" font-size="11" lengthAdjust="spacingAndGlyphs" textLength="62" x="117" y="422.8198">OutputKind</text><line style="stroke:#A80036;stroke-width:1.5;" x1="112" x2="189" y1="429.4141" y2="429.4141"/><!--MD5=[450f3d8ac624ad693607a87a0cb4fcf3]
class IData--><rect codeLine="35" fill="#FEFECE" filter="url(#fo8dpjb6owtc7)" height="73.6094" id="IData" style="stroke:#A80036;stroke-width:1.5;" width="64" x="87.5" y="497"/><ellipse cx="102.5" cy="513" fill="#B4A7E5" rx="11" ry="11" style="stroke:#A80036;stroke-width:1.0;"/><path d="M103.4531,509.7813 L105.1719,509.7813 C105.5625,509.7813 105.75,509.75 105.875,509.6719 C106.1406,509.5156 106.2813,509.2344 106.2813,508.9375 C106.2813,508.6719 106.1719,508.4063 105.9375,508.2344 C105.7656,508.125 105.625,508.0938 105.1719,508.0938 L100.0313,508.0938 C99.5938,508.0938 99.4688,508.1094 99.3125,508.2031 C99.0625,508.3594 98.9063,508.6563 98.9063,508.9375 C98.9063,509.2188 99.0469,509.4688 99.2656,509.6406 C99.4219,509.75 99.6094,509.7813 100.0313,509.7813 L101.75,509.7813 L101.75,516.2969 L100.0313,516.2969 C99.5938,516.2969 99.4688,516.3125 99.3125,516.4219 C99.0625,516.5781 98.9063,516.8594 98.9063,517.1563 C98.9063,517.4063 99.0469,517.6719 99.2656,517.8281 C99.4219,517.9531 99.625,518 100.0313,518 L105.1719,518 C105.9219,518 106.2813,517.7188 106.2813,517.1563 C106.2813,516.875 106.1719,516.625 105.9375,516.4531 C105.7656,516.3281 105.625,516.2969 105.1719,516.2969 L103.4531,516.2969 L103.4531,509.7813 Z " fill="#000000"/><text fill="#000000" font-family="sans-serif" font-size="12" font-style="italic" lengthAdjust="spacingAndGlyphs" textLength="32" x="116.5" y="517.1543">IData</text><line style="stroke:#A80036;stroke-width:1.5;" x1="88.5" x2="150.5" y1="529" y2="529"/><text fill="#000000" font-family="sans-serif" font-size="11" lengthAdjust="spacingAndGlyphs" textLength="41" x="93.5" y="543.2104">AsFloat</text><text fill="#000000" font-family="sans-serif" font-size="11" lengthAdjust="spacingAndGlyphs" textLength="47" x="93.5" y="556.0151">AsString</text><line style="stroke:#A80036;stroke-width:1.5;" x1="88.5" x2="150.5" y1="562.6094" y2="562.6094"/><!--MD5=[02ad754d2c579a4b1891ff2671e37258]
class IOdeProvider--><rect codeLine="40" fill="#FEFECE" filter="url(#fo8dpjb6owtc7)" height="73.6094" id="IOdeProvider" style="stroke:#A80036;stroke-width:1.5;" width="109" x="297" y="357"/><ellipse cx="312" cy="373" fill="#B4A7E5" rx="11" ry="11" style="stroke:#A80036;stroke-width:1.0;"/><path d="M312.9531,369.7813 L314.6719,369.7813 C315.0625,369.7813 315.25,369.75 315.375,369.6719 C315.6406,369.5156 315.7813,369.2344 315.7813,368.9375 C315.7813,368.6719 315.6719,368.4063 315.4375,368.2344 C315.2656,368.125 315.125,368.0938 314.6719,368.0938 L309.5313,368.0938 C309.0938,368.0938 308.9688,368.1094 308.8125,368.2031 C308.5625,368.3594 308.4063,368.6563 308.4063,368.9375 C308.4063,369.2188 308.5469,369.4688 308.7656,369.6406 C308.9219,369.75 309.1094,369.7813 309.5313,369.7813 L311.25,369.7813 L311.25,376.2969 L309.5313,376.2969 C309.0938,376.2969 308.9688,376.3125 308.8125,376.4219 C308.5625,376.5781 308.4063,376.8594 308.4063,377.1563 C308.4063,377.4063 308.5469,377.6719 308.7656,377.8281 C308.9219,377.9531 309.125,378 309.5313,378 L314.6719,378 C315.4219,378 315.7813,377.7188 315.7813,377.1563 C315.7813,376.875 315.6719,376.625 315.4375,376.4531 C315.2656,376.3281 315.125,376.2969 314.6719,376.2969 L312.9531,376.2969 L312.9531,369.7813 Z " fill="#000000"/><text fill="#000000" font-family="sans-serif" font-size="12" font-style="italic" lengthAdjust="spacingAndGlyphs" textLength="77" x="326" y="377.1543">IOdeProvider</text><line style="stroke:#A80036;stroke-width:1.5;" x1="298" x2="405" y1="389" y2="389"/><line style="stroke:#A80036;stroke-width:1.5;" x1="298" x2="405" y1="397" y2="397"/><text fill="#000000" font-family="sans-serif" font-size="11" lengthAdjust="spacingAndGlyphs" textLength="61" x="303" y="411.2104">GetRates()</text><text fill="#000000" font-family="sans-serif" font-size="11" lengthAdjust="spacingAndGlyphs" textLength="84" x="303" y="424.0151">Get/SetState()</text><!--MD5=[b4489ed4b18e416abca88393f4d36fca]
class Predator--><rect fill="#FEFECE" filter="url(#fo8dpjb6owtc7)" height="48" id="Predator" style="stroke:#A80036;stroke-width:1.5;" width="83" x="233" y="510"/><ellipse cx="248" cy="526" fill="#ADD1B2" rx="11" ry="11" style="stroke:#A80036;stroke-width:1.0;"/><path d="M250.3438,521.6719 C249.4063,521.2344 248.8125,521.0938 247.9375,521.0938 C245.3125,521.0938 243.3125,523.1719 243.3125,525.8906 L243.3125,527.0156 C243.3125,529.5938 245.4219,531.4844 248.3125,531.4844 C249.5313,531.4844 250.6875,531.1875 251.4375,530.6406 C252.0156,530.2344 252.3438,529.7813 252.3438,529.3906 C252.3438,528.9375 251.9531,528.5469 251.4844,528.5469 C251.2656,528.5469 251.0625,528.625 250.875,528.8125 C250.4219,529.2969 250.4219,529.2969 250.2344,529.3906 C249.8125,529.6563 249.125,529.7813 248.3594,529.7813 C246.3125,529.7813 245.0156,528.6875 245.0156,526.9844 L245.0156,525.8906 C245.0156,524.1094 246.2656,522.7969 248,522.7969 C248.5781,522.7969 249.1875,522.9531 249.6563,523.2031 C250.1406,523.4844 250.3125,523.7031 250.4063,524.1094 C250.4688,524.5156 250.5,524.6406 250.6406,524.7656 C250.7813,524.9063 251.0156,525.0156 251.2344,525.0156 C251.5,525.0156 251.7656,524.875 251.9375,524.6563 C252.0469,524.5 252.0781,524.3125 252.0781,523.8906 L252.0781,522.4688 C252.0781,522.0313 252.0625,521.9063 251.9688,521.75 C251.8125,521.4844 251.5313,521.3438 251.2344,521.3438 C250.9375,521.3438 250.7344,521.4375 250.5156,521.75 L250.3438,521.6719 Z " fill="#000000"/><text fill="#000000" font-family="sans-serif" font-size="12" lengthAdjust="spacingAndGlyphs" textLength="51" x="262" y="530.1543">Predator</text><line style="stroke:#A80036;stroke-width:1.5;" x1="234" x2="315" y1="542" y2="542"/><line style="stroke:#A80036;stroke-width:1.5;" x1="234" x2="315" y1="550" y2="550"/><!--MD5=[d412b85ab045701787009d7fbc02723a]
class EulerIntegrator--><rect fill="#FEFECE" filter="url(#fo8dpjb6owtc7)" height="48" id="EulerIntegrator" style="stroke:#A80036;stroke-width:1.5;" width="121" x="441" y="370"/><ellipse cx="456" cy="386" fill="#ADD1B2" rx="11" ry="11" style="stroke:#A80036;stroke-width:1.0;"/><path d="M458.3438,381.6719 C457.4063,381.2344 456.8125,381.0938 455.9375,381.0938 C453.3125,381.0938 451.3125,383.1719 451.3125,385.8906 L451.3125,387.0156 C451.3125,389.5938 453.4219,391.4844 456.3125,391.4844 C457.5313,391.4844 458.6875,391.1875 459.4375,390.6406 C460.0156,390.2344 460.3438,389.7813 460.3438,389.3906 C460.3438,388.9375 459.9531,388.5469 459.4844,388.5469 C459.2656,388.5469 459.0625,388.625 458.875,388.8125 C458.4219,389.2969 458.4219,389.2969 458.2344,389.3906 C457.8125,389.6563 457.125,389.7813 456.3594,389.7813 C454.3125,389.7813 453.0156,388.6875 453.0156,386.9844 L453.0156,385.8906 C453.0156,384.1094 454.2656,382.7969 456,382.7969 C456.5781,382.7969 457.1875,382.9531 457.6563,383.2031 C458.1406,383.4844 458.3125,383.7031 458.4063,384.1094 C458.4688,384.5156 458.5,384.6406 458.6406,384.7656 C458.7813,384.9063 459.0156,385.0156 459.2344,385.0156 C459.5,385.0156 459.7656,384.875 459.9375,384.6563 C460.0469,384.5 460.0781,384.3125 460.0781,383.8906 L460.0781,382.4688 C460.0781,382.0313 460.0625,381.9063 459.9688,381.75 C459.8125,381.4844 459.5313,381.3438 459.2344,381.3438 C458.9375,381.3438 458.7344,381.4375 458.5156,381.75 L458.3438,381.6719 Z " fill="#000000"/><text fill="#000000" font-family="sans-serif" font-size="12" lengthAdjust="spacingAndGlyphs" textLength="89" x="470" y="390.1543">EulerIntegrator</text><line style="stroke:#A80036;stroke-width:1.5;" x1="442" x2="561" y1="402" y2="402"/><line style="stroke:#A80036;stroke-width:1.5;" x1="442" x2="561" y1="410" y2="410"/><!--MD5=[be2beee1700e45edcad71e723f972203]
link ISimObj to ISimEvent--><!--MD5=[f539282ebb2e9c74ddefd300b16dc0b5]
link ISimEvent to ISimObj--><path codeLine="47" d="M253.11,217.336 C236.194,205.83 219.277,201.985 202.361,205.8 " fill="none" id="ISimEvent-to-ISimObj" style="stroke:#A80036;stroke-width:1.0;stroke-dasharray:1.0,3.0;"/><polygon fill="#A80036" points="197.111,207.231,206.8459,208.7247,201.9352,205.9167,204.7431,201.006,197.111,207.231" style="stroke:#A80036;stroke-width:1.0;"/><!--MD5=[11a56b5479a15891a5b9db04e088f26a]
reverse link ISimEnv to ISimObj--><path codeLine="45" d="M230,135.732 C215.833,154.403 200.643,174.42 187.376,191.904 " fill="none" id="ISimEnv-backto-ISimObj" style="stroke:#A80036;stroke-width:1.0;"/><polygon fill="#FFFFFF" points="237.974,125.225,231.1606,127.5866,230.7199,134.7842,237.5333,132.4226,237.974,125.225" style="stroke:#A80036;stroke-width:1.0;"/><!--MD5=[f05e06d391d871c7e558002ac0846ef1]
reverse link ISimObj to IInput--><path codeLine="46" d="M107.445,301.947 C95.5758,318.336 82.9479,335.772 71.9531,350.952 " fill="none" id="ISimObj-backto-IInput" style="stroke:#A80036;stroke-width:1.0;"/><polygon fill="#A80036" points="115.111,291.363,108.3519,293.8758,108.0717,301.0815,114.8309,298.5687,115.111,291.363" style="stroke:#A80036;stroke-width:1.0;"/><!--MD5=[758556730013a082d9b39ec5df0ee0c7]
reverse link ISimObj to IOutput--><path codeLine="48" d="M150.5,304.766 C150.5,320.321 150.5,336.639 150.5,350.952 " fill="none" id="ISimObj-backto-IOutput" style="stroke:#A80036;stroke-width:1.0;"/><polygon fill="#A80036" points="150.5,291.363,146.5,297.363,150.5,303.363,154.5,297.363,150.5,291.363" style="stroke:#A80036;stroke-width:1.0;"/><!--MD5=[fa68ed0e018d8ac8d3896fa85acd1987]
link IInput to IData--><path codeLine="49" d="M65.3264,437.154 C75.1547,454.543 86.5062,474.6264 96.2713,491.9031 " fill="none" id="IInput-to-IData" style="stroke:#A80036;stroke-width:1.0;stroke-dasharray:1.0,3.0;"/><polygon fill="#A80036" points="98.9809,496.697,98.0347,486.8937,96.5206,492.3442,91.0702,490.8301,98.9809,496.697" style="stroke:#A80036;stroke-width:1.0;"/><!--MD5=[00568ed905c373a3d8481a1df5779224]
reverse link IOutput to IData--><path codeLine="50" d="M138.139,450.026 C134.613,465.721 130.861,482.4233 127.655,496.697 " fill="none" id="IOutput-backto-IData" style="stroke:#A80036;stroke-width:1.0;"/><polygon fill="#A80036" points="141.031,437.154,135.813,442.1312,138.4003,448.8621,143.6184,443.8849,141.031,437.154" style="stroke:#A80036;stroke-width:1.0;"/><!--MD5=[047660a32add4083fd3b26d07f226817]
reverse link ISimEnv to ISimEvent--><path codeLine="52" d="M279.5,145.404 C279.5,171.462 279.5,198.803 279.5,217.446 " fill="none" id="ISimEnv-backto-ISimEvent" style="stroke:#A80036;stroke-width:1.0;"/><polygon fill="#A80036" points="279.5,132.355,275.5,138.355,279.5,144.355,283.5,138.355,279.5,132.355" style="stroke:#A80036;stroke-width:1.0;"/><!--MD5=[46f874852b5ce228aef303e33cf5263b]
reverse link ISimObj to Predator--><path codeLine="53" d="M187.325,309.272 C194.354,322.918 201.41,337.298 207.5,351 C232.32,406.844 255.624,474.9871 267.086,509.9188 " fill="none" id="ISimObj-backto-Predator" style="stroke:#A80036;stroke-width:1.0;stroke-dasharray:7.0,7.0;"/><polygon fill="none" points="180.961,312.21,177.85,291.25,193.353,305.695,180.961,312.21" style="stroke:#A80036;stroke-width:1.0;"/><!--MD5=[3e04ec5e62d30be95b2122d72cd59a4b]
reverse link IOdeProvider to Predator--><path codeLine="54" d="M321.48,448.802 C309.635,470.031 296.662,493.2812 287.356,509.9602 " fill="none" id="IOdeProvider-backto-Predator" style="stroke:#A80036;stroke-width:1.0;stroke-dasharray:7.0,7.0;"/><polygon fill="none" points="315.411,445.312,331.269,431.258,327.637,452.134,315.411,445.312" style="stroke:#A80036;stroke-width:1.0;"/><!--MD5=[cb5598d9da1bb1e35c222857c64b9998]
reverse link IIntegrator to EulerIntegrator--><path codeLine="56" d="M434.938,282.916 C451.691,310.624 473.334,346.417 487.315,369.54 " fill="none" id="IIntegrator-backto-EulerIntegrator" style="stroke:#A80036;stroke-width:1.0;stroke-dasharray:7.0,7.0;"/><polygon fill="none" points="428.878,286.422,424.519,265.686,440.858,279.179,428.878,286.422" style="stroke:#A80036;stroke-width:1.0;"/><!--MD5=[aaf638a2b99b2cac8846afabad548659]
reverse link ISimEnv to IIntegrator--><path codeLine="57" d="M329.378,135.227 C351.648,164.127 376.477,196.348 392.729,217.439 " fill="none" id="ISimEnv-backto-IIntegrator" style="stroke:#A80036;stroke-width:1.0;"/><polygon fill="#A80036" points="321.309,124.756,321.8022,131.9502,328.6327,134.262,328.1395,127.0678,321.309,124.756" style="stroke:#A80036;stroke-width:1.0;"/><!--MD5=[1834e88ed7d985d08323ee44613f45c4]
link IIntegrator to IOdeProvider--><path codeLine="59" d="M401.411,265.686 C392.396,288.68 378.395,324.394 367.514,352.151 " fill="none" id="IIntegrator-to-IOdeProvider" style="stroke:#A80036;stroke-width:1.0;stroke-dasharray:1.0,3.0;"/><polygon fill="#A80036" points="365.658,356.885,372.6683,349.9672,367.4839,352.2303,365.2208,347.0459,365.658,356.885" style="stroke:#A80036;stroke-width:1.0;"/><!--MD5=[60517ea474e9bf55d3974d1af7f06982]
@startuml
interface ISimEnv {
  StartTime
  StopTime
  CurrentTime
  Add()
  Step()
  Run()
}

interface ISimObj {
  Name
  StartRun()
  EndRun()
  HandleEvent()
}
  
interface IIntegrator

interface ISimEvent

ISimObj -[hidden]> ISimEvent

interface IInput {
  Name
  Units
  InputKind
}

interface IOutput {
  Name
  Units
  OutputKind
}

interface IData {
  AsFloat
  AsString
}

interface IOdeProvider {
  GetRates()
  Get/SetState()
}

ISimEnv o- - ISimObj
ISimObj *- - IInput
ISimEvent -[dotted]->  ISimObj
ISimObj *- - IOutput
IInput -[dotted]-> IData
IOutput *- - IData

ISimEnv *- - ISimEvent
ISimObj <|.. Predator
IOdeProvider <|.. Predator

IIntegrator <|.. EulerIntegrator
ISimEnv *- - IIntegrator

IIntegrator -[dotted]-> IOdeProvider
@enduml

PlantUML version 1.2020.21beta7(Unknown compile time)
(GPL source distribution)
Java Runtime: Java(TM) SE Runtime Environment
JVM: Java HotSpot(TM) 64-Bit Server VM
Default Encoding: UTF-8
Language: en
Country: US
--></g></svg>