<?xml version="1.0" encoding="UTF-8" standalone="no"?>
<svg xmlns="http://www.w3.org/2000/svg" xmlns:xlink="http://www.w3.org/1999/xlink" contentScriptType="application/ecmascript" contentStyleType="text/css" height="476px" preserveAspectRatio="none" style="width:398px;height:476px;" version="1.1" viewBox="0 0 398 476" width="398px" zoomAndPan="magnify"><defs><filter height="300%" id="f1gzbchau46v8" width="300%" x="-1" y="-1"><feGaussianBlur result="blurOut" stdDeviation="2.0"/><feColorMatrix in="blurOut" result="blurOut2" type="matrix" values="0 0 0 0 0 0 0 0 0 0 0 0 0 0 0 0 0 0 .4 0"/><feOffset dx="4.0" dy="4.0" in="blurOut2" result="blurOut3"/><feBlend in="SourceGraphic" in2="blurOut3" mode="normal"/></filter></defs><g><line style="stroke:#A80036;stroke-width:1.0;stroke-dasharray:5.0,5.0;" x1="40" x2="40" y1="40.2969" y2="433.625"/><line style="stroke:#A80036;stroke-width:1.0;stroke-dasharray:5.0,5.0;" x1="147.5" x2="147.5" y1="40.2969" y2="433.625"/><line style="stroke:#A80036;stroke-width:1.0;stroke-dasharray:5.0,5.0;" x1="295.5" x2="295.5" y1="40.2969" y2="433.625"/><line style="stroke:#A80036;stroke-width:1.0;stroke-dasharray:5.0,5.0;" x1="360.5" x2="360.5" y1="40.2969" y2="433.625"/><rect fill="#FEFECE" filter="url(#f1gzbchau46v8)" height="30.2969" style="stroke:#A80036;stroke-width:1.5;" width="67" x="5" y="5"/><text fill="#000000" font-family="sans-serif" font-size="14" lengthAdjust="spacingAndGlyphs" textLength="53" x="12" y="24.9951">SimEnv</text><rect fill="#FEFECE" filter="url(#f1gzbchau46v8)" height="30.2969" style="stroke:#A80036;stroke-width:1.5;" width="67" x="5" y="432.625"/><text fill="#000000" font-family="sans-serif" font-size="14" lengthAdjust="spacingAndGlyphs" textLength="53" x="12" y="452.6201">SimEnv</text><rect fill="#FEFECE" filter="url(#f1gzbchau46v8)" height="30.2969" style="stroke:#A80036;stroke-width:1.5;" width="88" x="101.5" y="5"/><text fill="#000000" font-family="sans-serif" font-size="14" lengthAdjust="spacingAndGlyphs" textLength="74" x="108.5" y="24.9951">Integrator</text><rect fill="#FEFECE" filter="url(#f1gzbchau46v8)" height="30.2969" style="stroke:#A80036;stroke-width:1.5;" width="88" x="101.5" y="432.625"/><text fill="#000000" font-family="sans-serif" font-size="14" lengthAdjust="spacingAndGlyphs" textLength="74" x="108.5" y="452.6201">Integrator</text><rect fill="#FEFECE" filter="url(#f1gzbchau46v8)" height="30.2969" style="stroke:#A80036;stroke-width:1.5;" width="52" x="267.5" y="5"/><text fill="#000000" font-family="sans-serif" font-size="14" lengthAdjust="spacingAndGlyphs" textLength="38" x="274.5" y="24.9951">Ode1</text><rect fill="#FEFECE" filter="url(#f1gzbchau46v8)" height="30.2969" style="stroke:#A80036;stroke-width:1.5;" width="52" x="267.5" y="432.625"/><text fill="#000000" font-family="sans-serif" font-size="14" lengthAdjust="spacingAndGlyphs" textLength="38" x="274.5" y="452.6201">Ode1</text><rect fill="#FEFECE" filter="url(#f1gzbchau46v8)" height="30.2969" style="stroke:#A80036;stroke-width:1.5;" width="51" x="333.5" y="5"/><text fill="#000000" font-family="sans-serif" font-size="14" lengthAdjust="spacingAndGlyphs" textLength="37" x="340.5" y="24.9951">Ode2</text><rect fill="#FEFECE" filter="url(#f1gzbchau46v8)" height="30.2969" style="stroke:#A80036;stroke-width:1.5;" width="51" x="333.5" y="432.625"/><text fill="#000000" font-family="sans-serif" font-size="14" lengthAdjust="spacingAndGlyphs" textLength="37" x="340.5" y="452.6201">Ode2</text><line style="stroke:#A80036;stroke-width:1.0;" x1="40.5" x2="82.5" y1="71.4297" y2="71.4297"/><line style="stroke:#A80036;stroke-width:1.0;" x1="82.5" x2="82.5" y1="71.4297" y2="84.4297"/><line style="stroke:#A80036;stroke-width:1.0;" x1="41.5" x2="82.5" y1="84.4297" y2="84.4297"/><polygon fill="#A80036" points="51.5,80.4297,41.5,84.4297,51.5,88.4297,47.5,84.4297" style="stroke:#A80036;stroke-width:1.0;"/><text fill="#000000" font-family="sans-serif" font-size="13" lengthAdjust="spacingAndGlyphs" textLength="44" x="47.5" y="66.3638">Output</text><polygon fill="#A80036" points="135.5,109.5625,145.5,113.5625,135.5,117.5625,139.5,113.5625" style="stroke:#A80036;stroke-width:1.0;"/><line style="stroke:#A80036;stroke-width:1.0;" x1="40.5" x2="141.5" y1="113.5625" y2="113.5625"/><text fill="#000000" font-family="sans-serif" font-size="13" lengthAdjust="spacingAndGlyphs" textLength="29" x="47.5" y="108.4966">Step</text><polygon fill="#A80036" points="283.5,138.6953,293.5,142.6953,283.5,146.6953,287.5,142.6953" style="stroke:#A80036;stroke-width:1.0;"/><line style="stroke:#A80036;stroke-width:1.0;" x1="147.5" x2="289.5" y1="142.6953" y2="142.6953"/><text fill="#000000" font-family="sans-serif" font-size="13" lengthAdjust="spacingAndGlyphs" textLength="57" x="154.5" y="137.6294">GetState</text><polygon fill="#A80036" points="158.5,152.6953,148.5,156.6953,158.5,160.6953,154.5,156.6953" style="stroke:#A80036;stroke-width:1.0;"/><line style="stroke:#A80036;stroke-width:1.0;stroke-dasharray:2.0,2.0;" x1="152.5" x2="294.5" y1="156.6953" y2="156.6953"/><polygon fill="#A80036" points="283.5,181.8281,293.5,185.8281,283.5,189.8281,287.5,185.8281" style="stroke:#A80036;stroke-width:1.0;"/><line style="stroke:#A80036;stroke-width:1.0;" x1="147.5" x2="289.5" y1="185.8281" y2="185.8281"/><text fill="#000000" font-family="sans-serif" font-size="13" lengthAdjust="spacingAndGlyphs" textLength="53" x="154.5" y="180.7622">GetRate</text><polygon fill="#A80036" points="158.5,195.8281,148.5,199.8281,158.5,203.8281,154.5,199.8281" style="stroke:#A80036;stroke-width:1.0;"/><line style="stroke:#A80036;stroke-width:1.0;stroke-dasharray:2.0,2.0;" x1="152.5" x2="294.5" y1="199.8281" y2="199.8281"/><polygon fill="#A80036" points="349,224.9609,359,228.9609,349,232.9609,353,228.9609" style="stroke:#A80036;stroke-width:1.0;"/><line style="stroke:#A80036;stroke-width:1.0;" x1="147.5" x2="355" y1="228.9609" y2="228.9609"/><text fill="#000000" font-family="sans-serif" font-size="13" lengthAdjust="spacingAndGlyphs" textLength="57" x="154.5" y="223.895">GetState</text><polygon fill="#A80036" points="158.5,238.9609,148.5,242.9609,158.5,246.9609,154.5,242.9609" style="stroke:#A80036;stroke-width:1.0;"/><line style="stroke:#A80036;stroke-width:1.0;stroke-dasharray:2.0,2.0;" x1="152.5" x2="360" y1="242.9609" y2="242.9609"/><polygon fill="#A80036" points="349,268.0938,359,272.0938,349,276.0938,353,272.0938" style="stroke:#A80036;stroke-width:1.0;"/><line style="stroke:#A80036;stroke-width:1.0;" x1="147.5" x2="355" y1="272.0938" y2="272.0938"/><text fill="#000000" font-family="sans-serif" font-size="13" lengthAdjust="spacingAndGlyphs" textLength="53" x="154.5" y="267.0278">GetRate</text><polygon fill="#A80036" points="158.5,282.0938,148.5,286.0938,158.5,290.0938,154.5,286.0938" style="stroke:#A80036;stroke-width:1.0;"/><line style="stroke:#A80036;stroke-width:1.0;stroke-dasharray:2.0,2.0;" x1="152.5" x2="360" y1="286.0938" y2="286.0938"/><line style="stroke:#A80036;stroke-width:1.0;" x1="147.5" x2="189.5" y1="315.2266" y2="315.2266"/><line style="stroke:#A80036;stroke-width:1.0;" x1="189.5" x2="189.5" y1="315.2266" y2="328.2266"/><line style="stroke:#A80036;stroke-width:1.0;" x1="148.5" x2="189.5" y1="328.2266" y2="328.2266"/><polygon fill="#A80036" points="158.5,324.2266,148.5,328.2266,158.5,332.2266,154.5,328.2266" style="stroke:#A80036;stroke-width:1.0;"/><text fill="#000000" font-family="sans-serif" font-size="13" lengthAdjust="spacingAndGlyphs" textLength="134" x="154.5" y="310.1606">Calculate new states</text><polygon fill="#A80036" points="283.5,353.3594,293.5,357.3594,283.5,361.3594,287.5,357.3594" style="stroke:#A80036;stroke-width:1.0;"/><line style="stroke:#A80036;stroke-width:1.0;" x1="147.5" x2="289.5" y1="357.3594" y2="357.3594"/><text fill="#000000" font-family="sans-serif" font-size="13" lengthAdjust="spacingAndGlyphs" textLength="55" x="154.5" y="352.2935">SetState</text><polygon fill="#A80036" points="349,382.4922,359,386.4922,349,390.4922,353,386.4922" style="stroke:#A80036;stroke-width:1.0;"/><line style="stroke:#A80036;stroke-width:1.0;" x1="147.5" x2="355" y1="386.4922" y2="386.4922"/><text fill="#000000" font-family="sans-serif" font-size="13" lengthAdjust="spacingAndGlyphs" textLength="55" x="154.5" y="381.4263">SetState</text><polygon fill="#A80036" points="51.5,411.625,41.5,415.625,51.5,419.625,47.5,415.625" style="stroke:#A80036;stroke-width:1.0;"/><line style="stroke:#A80036;stroke-width:1.0;stroke-dasharray:2.0,2.0;" x1="45.5" x2="146.5" y1="415.625" y2="415.625"/><text fill="#000000" font-family="sans-serif" font-size="13" lengthAdjust="spacingAndGlyphs" textLength="83" x="57.5" y="410.5591">Step finished</text><!--MD5=[9f3d841ca7612c446c3c524eb36d55ca]
@startuml
SimEnv -> SimEnv: Output

SimEnv -> Integrator: Step

Integrator -> Ode1: GetState
Integrator <- - Ode1

Integrator -> Ode1: GetRate
Integrator <- - Ode1

Integrator -> Ode2: GetState
Integrator <- - Ode2: 

Integrator -> Ode2: GetRate
Integrator <- - Ode2: 

Integrator -> Integrator: Calculate new states

Integrator -> Ode1: SetState

Integrator -> Ode2: SetState

SimEnv <- - Integrator: Step finished
@enduml

PlantUML version 1.2020.21beta7(Unknown compile time)
(GPL source distribution)
Java Runtime: Java(TM) SE Runtime Environment
JVM: Java HotSpot(TM) 64-Bit Server VM
Default Encoding: UTF-8
Language: en
Country: US
--></g></svg>